<?xml version="1.0" encoding="UTF-8"?>
<svg id="Layer_2" data-name="Layer 2" xmlns="http://www.w3.org/2000/svg" viewBox="0 0 36.99 36.99">
  <defs>
    <style>
      .cls-1 {
        fill: #fff;
      }
    </style>
  </defs>
  <g id="info">
    <g>
      <path class="cls-1" d="M1.75,8.39l3.84,3.84,23.02,23.02c2.11,2.11,5.33,2.34,7.16,.52s1.59-5.04-.52-7.16L12.22,5.59l-3.84-3.84C6.27-.36,3.06-.6,1.23,1.23S-.36,6.27,1.75,8.39Z"/>
      <path class="cls-1" d="M28.61,1.75l-3.84,3.84L1.75,28.61c-2.11,2.11-2.34,5.33-.52,7.16s5.04,1.59,7.16-.52L31.41,12.22l3.84-3.84c2.11-2.11,2.34-5.33,.52-7.16s-5.04-1.59-7.16,.52Z"/>
    </g>
  </g>
</svg>