<?xml version="1.0" encoding="UTF-8"?>
<svg id="Layer_2" data-name="Layer 2" xmlns="http://www.w3.org/2000/svg" viewBox="0 0 36 36">
  <defs>
    <style>
      .cls-1 {
        fill: #fff;
      }
    </style>
  </defs>
  <g id="info">
    <g>
      <path class="cls-1" d="M4,8h28c2.2,0,4-1.8,4-4s-1.8-4-4-4H4C1.8,0,0,1.8,0,4s1.8,4,4,4Z"/>
      <path class="cls-1" d="M32,14H4c-2.2,0-4,1.8-4,4s1.8,4,4,4h28c2.2,0,4-1.8,4-4s-1.8-4-4-4Z"/>
      <path class="cls-1" d="M32,28H4c-2.2,0-4,1.8-4,4s1.8,4,4,4h28c2.2,0,4-1.8,4-4s-1.8-4-4-4Z"/>
    </g>
  </g>
</svg>